<svg width="20" height="16" viewBox="0 0 20 16" fill="none" xmlns="http://www.w3.org/2000/svg">
<path d="M18.8409 8.79598L12.0909 15.546C11.8795 15.7573 11.5929 15.8761 11.294 15.8761C10.9951 15.8761 10.7085 15.7573 10.4971 15.546C10.2858 15.3346 10.167 15.048 10.167 14.7491C10.167 14.4502 10.2858 14.1636 10.4971 13.9522L15.3262 9.12504H1.54492C1.24655 9.12504 0.960405 9.00652 0.749427 8.79554C0.538448 8.58456 0.419922 8.29841 0.419922 8.00004C0.419922 7.70167 0.538448 7.41552 0.749427 7.20455C0.960405 6.99357 1.24655 6.87504 1.54492 6.87504H15.3262L10.499 2.04504C10.2876 1.8337 10.1689 1.54705 10.1689 1.24817C10.1689 0.949281 10.2876 0.662636 10.499 0.451292C10.7103 0.239948 10.997 0.121216 11.2959 0.121216C11.5947 0.121216 11.8814 0.239948 12.0927 0.451292L18.8427 7.20129C18.9476 7.30595 19.0308 7.4303 19.0875 7.5672C19.1442 7.7041 19.1733 7.85085 19.1732 7.99903C19.173 8.1472 19.1435 8.29389 19.0865 8.43065C19.0295 8.56742 18.946 8.69157 18.8409 8.79598Z" fill="white"/>
</svg>
