<svg width="19" height="17" viewBox="0 0 19 17" fill="none" xmlns="http://www.w3.org/2000/svg">
<path d="M18.5459 9.56588L11.7959 16.3159C11.5846 16.5272 11.2979 16.646 10.9991 16.646C10.7002 16.646 10.4135 16.5272 10.2022 16.3159C9.99084 16.1045 9.87211 15.8179 9.87211 15.519C9.87211 15.2201 9.99084 14.9335 10.2022 14.7221L15.0312 9.89494H1.25C0.951631 9.89494 0.665483 9.77641 0.454505 9.56543C0.243526 9.35446 0.125 9.06831 0.125 8.76994C0.125 8.47157 0.243526 8.18542 0.454505 7.97444C0.665483 7.76347 0.951631 7.64494 1.25 7.64494H15.0312L10.2041 2.81494C9.99272 2.6036 9.87399 2.31695 9.87399 2.01806C9.87399 1.71918 9.99272 1.43253 10.2041 1.22119C10.4154 1.00985 10.7021 0.891113 11.0009 0.891113C11.2998 0.891113 11.5865 1.00985 11.7978 1.22119L18.5478 7.97119C18.6527 8.07585 18.7359 8.2002 18.7926 8.33709C18.8493 8.47399 18.8784 8.62075 18.8782 8.76892C18.8781 8.9171 18.8486 9.06378 18.7916 9.20055C18.7346 9.33731 18.6511 9.46147 18.5459 9.56588Z" fill="#FEFEFE"/>
</svg>
