<svg width="25" height="25" viewBox="0 0 25 25" fill="none" xmlns="http://www.w3.org/2000/svg">
<g clip-path="url(#clip0_430_1975)">
<path d="M11.3311 2.6C11.6851 2.24648 12.1587 2.03846 12.6585 2.01698C13.1583 1.99551 13.6481 2.16214 14.0311 2.484L14.1591 2.601L16.0591 4.5H18.7451C19.2495 4.5001 19.7352 4.69077 20.105 5.03384C20.4748 5.37691 20.7012 5.84702 20.7391 6.35L20.7451 6.5V9.18601L22.6451 11.086C22.9989 11.44 23.2071 11.9139 23.2285 12.4139C23.25 12.914 23.0832 13.4039 22.7611 13.787L22.6441 13.914L20.7441 15.814V18.5C20.7442 19.0046 20.5537 19.4906 20.2106 19.8606C19.8675 20.2305 19.3972 20.4572 18.8941 20.495L18.7451 20.5H16.0601L14.1601 22.4C13.806 22.7538 13.3322 22.962 12.8321 22.9835C12.3321 23.005 11.8421 22.8382 11.4591 22.516L11.3321 22.4L9.43208 20.5H6.74508C6.24051 20.5002 5.75452 20.3096 5.38454 19.9665C5.01456 19.6234 4.78793 19.1532 4.75008 18.65L4.74508 18.5V15.814L2.84509 13.914C2.49128 13.56 2.28309 13.0861 2.26161 12.5861C2.24013 12.086 2.40694 11.5961 2.72909 11.213L2.84509 11.086L4.74508 9.18601V6.5C4.74518 5.9956 4.93586 5.50986 5.27892 5.14009C5.62199 4.77032 6.0921 4.54383 6.59508 4.506L6.74508 4.5H9.43108L11.3311 2.6ZM12.7451 4.016L10.8451 5.916C10.5129 6.24766 10.0747 6.45191 9.60708 6.493L9.43108 6.5H6.74508V9.18601C6.7452 9.6559 6.57987 10.1108 6.27808 10.471L6.15908 10.601L4.25909 12.501L6.15908 14.4C6.4911 14.732 6.69571 15.1703 6.73708 15.638L6.74508 15.814V18.5H9.43108C9.90097 18.4999 10.3559 18.6652 10.7161 18.967L10.8461 19.086L12.7451 20.986L14.6451 19.086C14.9771 18.754 15.4154 18.5494 15.8831 18.508L16.0591 18.5H18.7451V15.814C18.7449 15.3441 18.9103 14.8892 19.2121 14.529L19.3311 14.399L21.2311 12.5L19.3311 10.6C18.9991 10.268 18.7944 9.82973 18.7531 9.36201L18.7451 9.18601V6.5H16.0591C15.5892 6.50012 15.1342 6.33479 14.7741 6.033L14.6441 5.914L12.7441 4.014L12.7451 4.016ZM15.8251 9.48401C16.005 9.30466 16.2465 9.20053 16.5005 9.19278C16.7544 9.18502 17.0018 9.27422 17.1924 9.44225C17.3829 9.61029 17.5024 9.84456 17.5265 10.0975C17.5506 10.3504 17.4775 10.603 17.3221 10.804L17.2381 10.898L12.3581 15.778C12.1676 15.9688 11.9136 16.0829 11.6444 16.0988C11.3753 16.1146 11.1097 16.0311 10.8981 15.864L10.8021 15.779L8.39808 13.375C8.21683 13.1955 8.11105 12.9534 8.1024 12.6985C8.09375 12.4435 8.18288 12.1948 8.35155 12.0034C8.52022 11.812 8.75567 11.6923 9.0097 11.6688C9.26374 11.6453 9.51716 11.7198 9.71808 11.877L9.81208 11.96L11.5801 13.728L15.8251 9.48401Z" fill="#67B3C0"/>
</g>
<defs>
<clipPath id="clip0_430_1975">
<rect width="24" height="24" fill="white" transform="translate(0.744141 0.5)"/>
</clipPath>
</defs>
</svg>
