<svg width="26" height="15" viewBox="0 0 26 15" fill="none" xmlns="http://www.w3.org/2000/svg">
<path d="M25 1.35002C24.8326 1.16943 24.6312 1.02359 24.4074 0.92083C24.1836 0.81807 23.9418 0.760401 23.6957 0.751114C23.4496 0.741828 23.2041 0.781107 22.9732 0.866709C22.7423 0.952312 22.5306 1.08256 22.35 1.25001L13 10.0675L3.65001 1.25001C3.46944 1.08258 3.25766 0.952349 3.02676 0.86676C2.79586 0.781169 2.55037 0.741896 2.30429 0.751181C2.05822 0.760467 1.81638 0.81813 1.59259 0.920878C1.3688 1.02363 1.16744 1.16945 1 1.35002C0.832569 1.53058 0.702339 1.74236 0.616749 1.97326C0.531158 2.20416 0.491884 2.44965 0.501171 2.69573C0.510456 2.9418 0.568119 3.18364 0.670868 3.40743C0.773615 3.63122 0.919437 3.83258 1.1 4.00002L11.725 14C12.0717 14.3216 12.5271 14.5002 13 14.5002C13.4729 14.5002 13.9283 14.3216 14.275 14L24.9 4.00002C25.0806 3.83259 25.2264 3.63124 25.3292 3.40744C25.432 3.18365 25.4896 2.94181 25.4989 2.69573C25.5082 2.44965 25.4689 2.20415 25.3833 1.97325C25.2977 1.74235 25.1675 1.53057 25 1.35002Z" fill="#413E3E"/>
</svg>
