<svg width="22" height="23" viewBox="0 0 22 23" fill="none" xmlns="http://www.w3.org/2000/svg">
<path d="M11 21.5C16.5228 21.5 21 17.0228 21 11.5C21 5.97715 16.5228 1.5 11 1.5C5.47715 1.5 1 5.97715 1 11.5C1 17.0228 5.47715 21.5 11 21.5Z" stroke="#413E3E" stroke-width="2" stroke-linecap="round" stroke-linejoin="round"/>
<path d="M14 8.854C13.4626 8.2447 12.7523 7.81351 11.9638 7.61779C11.1753 7.42208 10.3458 7.47112 9.58585 7.7584C8.82588 8.04568 8.17141 8.55757 7.70952 9.22596C7.24763 9.89435 7.00022 10.6875 7.00022 11.5C7.00022 12.3125 7.24763 13.1057 7.70952 13.774C8.17141 14.4424 8.82588 14.9543 9.58585 15.2416C10.3458 15.5289 11.1753 15.5779 11.9638 15.3822C12.7523 15.1865 13.4626 14.7553 14 14.146" stroke="#413E3E" stroke-width="2" stroke-linecap="round" stroke-linejoin="round"/>
</svg>
