<svg width="60" height="57" viewBox="0 0 60 57" fill="none" xmlns="http://www.w3.org/2000/svg">
<rect y="0.363647" width="60" height="56.3637" rx="14" fill="#03A4AE" fill-opacity="0.61"/>
<path d="M30.5 48.1666L30.0208 42.4166H29.5417C25.0056 42.4166 21.1563 40.8354 17.9938 37.6729C14.8313 34.5104 13.25 30.6611 13.25 26.125C13.25 21.5889 14.8313 17.7396 17.9938 14.5771C21.1563 11.4146 25.0056 9.83331 29.5417 9.83331C31.8097 9.83331 33.9264 10.2563 35.8916 11.1021C37.8568 11.948 39.5818 13.114 41.0666 14.6001C42.5514 16.0861 43.7167 17.8111 44.5626 19.7751C45.4085 21.739 45.8321 23.8556 45.8333 26.125C45.8333 28.5208 45.4423 30.8208 44.6603 33.025C43.8783 35.2291 42.8076 37.2736 41.448 39.1583C40.091 41.043 38.4778 42.7521 36.6084 44.2854C34.739 45.8187 32.7029 47.1125 30.5 48.1666ZM34.3333 41.1708C36.6014 39.2541 38.4465 37.0104 39.8687 34.4395C41.2908 31.8686 42.0013 29.0971 42 26.125C42 22.643 40.7938 19.6965 38.3813 17.2853C35.9689 14.8741 33.0223 13.6679 29.5417 13.6666C26.0597 13.6666 23.1132 14.8729 20.702 17.2853C18.2908 19.6978 17.0846 22.6443 17.0833 26.125C17.0833 29.6069 18.2896 32.5541 20.702 34.9666C23.1144 37.379 26.061 38.5846 29.5417 38.5833H34.3333V41.1708ZM29.4938 36.6187C30.0368 36.6187 30.5 36.4271 30.8833 36.0437C31.2667 35.6604 31.4583 35.1972 31.4583 34.6541C31.4583 34.1111 31.2667 33.6479 30.8833 33.2646C30.5 32.8812 30.0368 32.6896 29.4938 32.6896C28.9507 32.6896 28.4875 32.8812 28.1042 33.2646C27.7208 33.6479 27.5292 34.1111 27.5292 34.6541C27.5292 35.1972 27.7208 35.6604 28.1042 36.0437C28.4875 36.4271 28.9507 36.6187 29.4938 36.6187ZM28.1042 30.5333H30.9792C30.9792 29.575 31.075 28.9041 31.2667 28.5208C31.4583 28.1375 32.0653 27.4347 33.0875 26.4125C33.6625 25.8375 34.1417 25.2146 34.525 24.5437C34.9083 23.8729 35.1 23.1541 35.1 22.3875C35.1 20.7583 34.5493 19.5368 33.4478 18.7228C32.3464 17.9089 31.0443 17.5013 29.5417 17.5C28.1361 17.5 26.9542 17.8916 25.9958 18.6749C25.0375 19.4582 24.3667 20.4082 23.9833 21.525L26.6667 22.5791C26.8264 22.0361 27.1299 21.5013 27.5771 20.9749C28.0243 20.4485 28.6792 20.1846 29.5417 20.1833C30.4042 20.1833 31.0514 20.4229 31.4833 20.9021C31.9151 21.3812 32.1305 21.9083 32.1292 22.4833C32.1292 23.0264 31.9694 23.5138 31.65 23.9457C31.3306 24.3776 30.9472 24.8165 30.5 25.2625C29.3819 26.2208 28.7034 26.9798 28.4645 27.5395C28.2256 28.0991 28.1054 29.0971 28.1042 30.5333Z" fill="#FEFEFE"/>
</svg>
