<svg width="80" height="80" viewBox="0 0 80 80" fill="none" xmlns="http://www.w3.org/2000/svg">
<rect width="80" height="80" rx="12" fill="#0C0C0C"/>
<g clip-path="url(#clip0_398_1908)">
<path d="M70.4997 40.1837C70.4997 23.5112 57.0672 9.99622 40.4997 9.99622C23.9247 9.99997 10.4922 23.5112 10.4922 40.1875C10.4922 55.2512 21.4647 67.7387 35.8047 70.0037V48.91H28.1922V40.1875H35.8122V33.5312C35.8122 25.9675 40.2934 21.79 47.1447 21.79C50.4297 21.79 53.8609 22.3787 53.8609 22.3787V29.8037H50.0772C46.3534 29.8037 45.1909 32.1325 45.1909 34.5212V40.1837H53.5084L52.1809 48.9062H45.1872V70C59.5272 67.735 70.4997 55.2475 70.4997 40.1837Z" fill="#FEFEFE"/>
</g>
<defs>
<clipPath id="clip0_398_1908">
<rect width="60" height="60" fill="white" transform="translate(10.5 10)"/>
</clipPath>
</defs>
</svg>
