<svg width="40" height="40" viewBox="0 0 40 40" fill="none" xmlns="http://www.w3.org/2000/svg">
<rect x="0.5" y="0.5" width="39" height="39" rx="19.5" stroke="#413E3E"/>
<path d="M20 16.505C18.065 16.505 16.505 18.08 16.505 20C16.505 21.92 18.08 23.495 20 23.495C21.92 23.495 23.495 21.92 23.495 20C23.495 18.08 21.92 16.505 20 16.505ZM30.5 20C30.5 18.545 30.5 17.12 30.425 15.665C30.35 13.985 29.96 12.485 28.73 11.27C27.5 10.04 26.015 9.65 24.335 9.575C22.88 9.5 21.455 9.5 20 9.5C18.545 9.5 17.12 9.5 15.665 9.575C13.985 9.65 12.485 10.04 11.27 11.27C10.04 12.5 9.65 13.985 9.575 15.665C9.5 17.12 9.5 18.545 9.5 20C9.5 21.455 9.5 22.88 9.575 24.335C9.65 26.015 10.04 27.515 11.27 28.73C12.5 29.96 13.985 30.35 15.665 30.425C17.12 30.5 18.545 30.5 20 30.5C21.455 30.5 22.88 30.5 24.335 30.425C26.015 30.35 27.515 29.96 28.73 28.73C29.96 27.5 30.35 26.015 30.425 24.335C30.515 22.895 30.5 21.455 30.5 20ZM20 25.385C17.015 25.385 14.615 22.985 14.615 20C14.615 17.015 17.015 14.615 20 14.615C22.985 14.615 25.385 17.015 25.385 20C25.385 22.985 22.985 25.385 20 25.385ZM25.61 15.65C24.92 15.65 24.35 15.095 24.35 14.39C24.35 13.685 24.905 13.13 25.61 13.13C26.315 13.13 26.87 13.685 26.87 14.39C26.8738 14.5543 26.8438 14.7176 26.7819 14.8699C26.7199 15.0221 26.6274 15.16 26.51 15.275C26.395 15.3924 26.2571 15.4849 26.1049 15.5469C25.9526 15.6088 25.7893 15.6388 25.625 15.635L25.61 15.65Z" fill="#413E3E"/>
</svg>
