<svg width="88" height="88" viewBox="0 0 88 88" fill="none" xmlns="http://www.w3.org/2000/svg">
<g filter="url(#filter0_d_398_1929)">
<rect x="4" y="4" width="80" height="80" rx="12" fill="#0C0C0C"/>
<path d="M44 35.2625C39.1625 35.2625 35.2625 39.2 35.2625 44C35.2625 48.8 39.2 52.7375 44 52.7375C48.8 52.7375 52.7375 48.8 52.7375 44C52.7375 39.2 48.8 35.2625 44 35.2625ZM70.25 44C70.25 40.3625 70.25 36.8 70.0625 33.1625C69.875 28.9625 68.9 25.2125 65.825 22.175C62.75 19.1 59.0375 18.125 54.8375 17.9375C51.2 17.75 47.6375 17.75 44 17.75C40.3625 17.75 36.8 17.75 33.1625 17.9375C28.9625 18.125 25.2125 19.1 22.175 22.175C19.1 25.25 18.125 28.9625 17.9375 33.1625C17.75 36.8 17.75 40.3625 17.75 44C17.75 47.6375 17.75 51.2 17.9375 54.8375C18.125 59.0375 19.1 62.7875 22.175 65.825C25.25 68.9 28.9625 69.875 33.1625 70.0625C36.8 70.25 40.3625 70.25 44 70.25C47.6375 70.25 51.2 70.25 54.8375 70.0625C59.0375 69.875 62.7875 68.9 65.825 65.825C68.9 62.75 69.875 59.0375 70.0625 54.8375C70.2875 51.2375 70.25 47.6375 70.25 44ZM44 57.4625C36.5375 57.4625 30.5375 51.4625 30.5375 44C30.5375 36.5375 36.5375 30.5375 44 30.5375C51.4625 30.5375 57.4625 36.5375 57.4625 44C57.4625 51.4625 51.4625 57.4625 44 57.4625ZM58.025 33.125C56.3 33.125 54.875 31.7375 54.875 29.975C54.875 28.2125 56.2625 26.825 58.025 26.825C59.7875 26.825 61.175 28.2125 61.175 29.975C61.1845 30.3858 61.1095 30.7941 60.9547 31.1747C60.7999 31.5553 60.5685 31.9 60.275 32.1875C59.9875 32.481 59.6428 32.7124 59.2622 32.8672C58.8816 33.022 58.4733 33.097 58.0625 33.0875L58.025 33.125Z" fill="#FEFEFE"/>
</g>
<defs>
<filter id="filter0_d_398_1929" x="0.5" y="0.5" width="87" height="87" filterUnits="userSpaceOnUse" color-interpolation-filters="sRGB">
<feFlood flood-opacity="0" result="BackgroundImageFix"/>
<feColorMatrix in="SourceAlpha" type="matrix" values="0 0 0 0 0 0 0 0 0 0 0 0 0 0 0 0 0 0 127 0" result="hardAlpha"/>
<feOffset/>
<feGaussianBlur stdDeviation="1.75"/>
<feComposite in2="hardAlpha" operator="out"/>
<feColorMatrix type="matrix" values="0 0 0 0 0 0 0 0 0 0 0 0 0 0 0 0 0 0 0.2 0"/>
<feBlend mode="normal" in2="BackgroundImageFix" result="effect1_dropShadow_398_1929"/>
<feBlend mode="normal" in="SourceGraphic" in2="effect1_dropShadow_398_1929" result="shape"/>
</filter>
</defs>
</svg>
