<svg width="60" height="57" viewBox="0 0 60 57" fill="none" xmlns="http://www.w3.org/2000/svg">
<rect y="0.363647" width="60" height="56.3636" rx="14" fill="#FF0000" fill-opacity="0.12"/>
<g clip-path="url(#clip0_42_324)">
<path fill-rule="evenodd" clip-rule="evenodd" d="M8.5 24.104C8.94299 19.8766 10.866 15.9419 13.9292 12.995C16.9924 10.0482 20.9986 8.279 25.24 8C25.1374 8.08291 25.0439 8.17643 24.961 8.279C21.2778 12.8079 18.9771 18.302 18.334 24.104H8.5ZM19.456 34.73C19.456 34.862 19.462 34.994 19.471 35.123V42.611C16.4867 41.3616 13.8935 39.3323 11.9632 36.7359C10.033 34.1396 8.83676 31.0717 8.5 27.854H18.334C18.553 29.834 18.964 31.784 19.564 33.671C19.4924 34.0184 19.4562 34.3752 19.456 34.73ZM22.111 27.86H27.361L22.621 29.912C22.5696 29.9342 22.5186 29.9572 22.468 29.981C22.3194 29.2781 22.1993 28.5696 22.108 27.857L22.111 27.86ZM44.341 24.11H34.495C33.8545 18.3051 31.5547 12.8078 27.871 8.276C27.787 8.17434 27.6925 8.08183 27.589 8C31.8325 8.27627 35.8416 10.0443 38.9073 12.9914C41.9729 15.9384 43.8976 19.8747 44.341 24.104V24.11ZM22.111 24.11H30.721C30.2002 19.9961 28.726 16.0607 26.416 12.617C24.1064 16.0598 22.6323 19.9972 22.111 24.11ZM37.45 28.13C37.2445 28.041 37.023 27.9951 36.799 27.9951C36.5751 27.9951 36.3535 28.041 36.148 28.13L24.226 33.296C24.102 33.3494 23.9852 33.4179 23.878 33.5C23.5601 33.6778 23.2955 33.9373 23.1114 34.2517C22.9274 34.566 22.8306 34.9237 22.831 35.288V44.372C22.831 44.915 23.0467 45.4358 23.4307 45.8198C23.8147 46.2038 24.3355 46.4195 24.8785 46.4195C25.4215 46.4195 25.9423 46.2038 26.3263 45.8198C26.7103 45.4358 26.926 44.915 26.926 44.372V37.472L36.148 41.465C36.565 41.645 37.036 41.645 37.45 41.465L49.372 36.302C49.6651 36.175 49.9147 35.965 50.0901 35.698C50.2654 35.431 50.3588 35.1185 50.3588 34.799C50.3588 34.4795 50.2654 34.167 50.0901 33.9C49.9147 33.6329 49.6651 33.423 49.372 33.296L37.45 28.13ZM28.651 41.66L34.723 44.291C35.3779 44.5746 36.0839 44.7209 36.7975 44.7209C37.5111 44.7209 38.2172 44.5746 38.872 44.291L44.944 41.66V45.734C44.944 46.094 44.83 46.442 44.614 46.724L43.309 45.734L44.611 46.727L44.608 46.733L44.602 46.739L44.59 46.757L44.554 46.802C44.3991 46.9872 44.2339 47.1635 44.059 47.33C43.729 47.642 43.249 48.041 42.61 48.434C41.317 49.226 39.397 49.976 36.799 49.976C34.201 49.976 32.281 49.226 30.991 48.431C30.3152 48.0172 29.6994 47.5125 29.161 46.931C29.1232 46.8877 29.0862 46.8437 29.05 46.799L29.014 46.754L29.002 46.736L28.996 46.73V46.724H28.99C28.7756 46.4396 28.6598 46.0931 28.66 45.737L28.648 41.657L28.651 41.66Z" fill="#E97B7B" fill-opacity="0.69"/>
</g>
<defs>
<clipPath id="clip0_42_324">
<rect width="42" height="42" fill="white" transform="translate(8.5 8)"/>
</clipPath>
</defs>
</svg>
