<svg width="25" height="24" viewBox="0 0 25 24" fill="none" xmlns="http://www.w3.org/2000/svg">
<g clip-path="url(#clip0_442_1728)">
<path fill-rule="evenodd" clip-rule="evenodd" d="M0.744141 9.20228C0.997277 6.78664 2.09613 4.53821 3.84654 2.85431C5.59694 1.17041 7.88622 0.159427 10.3099 0C10.2512 0.0473783 10.1978 0.100818 10.1504 0.159429C8.04575 2.7474 6.73105 5.88683 6.36357 9.20228H0.744141ZM7.00471 15.2743C7.00471 15.3497 7.00814 15.4251 7.01329 15.4989V19.7777C5.30797 19.0638 3.82614 17.9042 2.72313 16.4205C1.62012 14.9369 0.936574 13.1838 0.744141 11.3451H6.36357C6.48871 12.4766 6.72357 13.5909 7.06643 14.6691C7.02552 14.8677 7.00485 15.0716 7.00471 15.2743ZM8.52186 11.3486H11.5219L8.81329 12.5211C8.78394 12.5338 8.75479 12.547 8.72586 12.5606C8.64095 12.1589 8.57232 11.754 8.52014 11.3469L8.52186 11.3486ZM21.2247 9.20571H15.5984C15.2324 5.88864 13.9183 2.74731 11.8133 0.157714C11.7653 0.0996214 11.7113 0.0467574 11.6521 0C14.077 0.15787 16.3679 1.16816 18.1197 2.85221C19.8715 4.53625 20.9714 6.78554 21.2247 9.20228V9.20571ZM8.52186 9.20571H13.4419C13.1442 6.85493 12.3019 4.60611 10.9819 2.63829C9.66209 4.6056 8.81975 6.85553 8.52186 9.20571ZM17.287 11.5029C17.1696 11.452 17.043 11.4258 16.915 11.4258C16.787 11.4258 16.6604 11.452 16.543 11.5029L9.73043 14.4549C9.65959 14.4854 9.5928 14.5245 9.53157 14.5714C9.34993 14.6731 9.19871 14.8213 9.09353 15.0009C8.98836 15.1806 8.93304 15.385 8.93329 15.5931V20.784C8.93329 21.0943 9.05655 21.3919 9.27597 21.6113C9.49539 21.8307 9.79298 21.954 10.1033 21.954C10.4136 21.954 10.7112 21.8307 10.9306 21.6113C11.15 21.3919 11.2733 21.0943 11.2733 20.784V16.8411L16.543 19.1229C16.7813 19.2257 17.0504 19.2257 17.287 19.1229L24.0996 16.1726C24.2671 16.1 24.4097 15.98 24.5099 15.8274C24.6101 15.6748 24.6635 15.4963 24.6635 15.3137C24.6635 15.1312 24.6101 14.9526 24.5099 14.8C24.4097 14.6474 24.2671 14.5274 24.0996 14.4549L17.287 11.5029ZM12.259 19.2343L15.7287 20.7377C16.1029 20.8998 16.5064 20.9834 16.9141 20.9834C17.3219 20.9834 17.7254 20.8998 18.0996 20.7377L21.5693 19.2343V21.5623C21.5693 21.768 21.5042 21.9669 21.3807 22.128L20.635 21.5623L21.379 22.1297L21.3773 22.1331L21.3739 22.1366L21.367 22.1469L21.3464 22.1726C21.2579 22.2784 21.1635 22.3791 21.0636 22.4743C20.875 22.6526 20.6007 22.8806 20.2356 23.1051C19.4967 23.5577 18.3996 23.9863 16.915 23.9863C15.4304 23.9863 14.3333 23.5577 13.5961 23.1034C13.21 22.867 12.8581 22.5786 12.5504 22.2463C12.5288 22.2215 12.5077 22.1964 12.487 22.1709L12.4664 22.1451L12.4596 22.1349L12.4561 22.1314V22.128H12.4527C12.3302 21.9655 12.264 21.7675 12.2641 21.564L12.2573 19.2326L12.259 19.2343Z" fill="#E97B7B" fill-opacity="0.69"/>
</g>
<defs>
<clipPath id="clip0_442_1728">
<rect width="24" height="24" fill="white" transform="translate(0.744141)"/>
</clipPath>
</defs>
</svg>
