<svg width="25" height="17" viewBox="0 0 25 17" fill="none" xmlns="http://www.w3.org/2000/svg">
<path d="M9.10938 12.9609C9.10938 13.9297 8.71094 14.8125 7.91406 15.6094C7.11719 16.4062 6.28906 16.8047 5.42969 16.8047C3.92969 16.8047 2.80469 16.3516 2.05469 15.4453C1.32031 14.5391 0.953125 13.3438 0.953125 11.8594C0.953125 8.89062 1.77344 6.41406 3.41406 4.42969C5.05469 2.44531 7.21875 1.21875 9.90625 0.75L11.0078 2.34375C8.60156 3.125 6.95312 4.1875 6.0625 5.53125C5.70312 6.0625 5.52344 6.46875 5.52344 6.75C5.52344 7.65625 5.77344 8.28906 6.27344 8.64844C6.78906 8.99219 7.20312 9.30469 7.51562 9.58594C7.82812 9.85156 8.10156 10.1406 8.33594 10.4531C8.85156 11.1406 9.10938 11.9766 9.10938 12.9609ZM22.2344 12.9609C22.2344 13.9297 21.8359 14.8125 21.0391 15.6094C20.2422 16.4062 19.4141 16.8047 18.5547 16.8047C17.0547 16.8047 15.9297 16.3516 15.1797 15.4453C14.4453 14.5391 14.0781 13.3438 14.0781 11.8594C14.0781 8.89062 14.8984 6.41406 16.5391 4.42969C18.1797 2.44531 20.3438 1.21875 23.0312 0.75L24.1328 2.34375C21.7266 3.125 20.0781 4.1875 19.1875 5.53125C18.8281 6.0625 18.6484 6.46875 18.6484 6.75C18.6484 7.65625 18.8984 8.28906 19.3984 8.64844C19.9141 8.99219 20.3281 9.30469 20.6406 9.58594C20.9531 9.85156 21.2266 10.1406 21.4609 10.4531C21.9766 11.1406 22.2344 11.9766 22.2344 12.9609Z" fill="#413E3E"/>
</svg>
