<svg width="80" height="81" viewBox="0 0 80 81" fill="none" xmlns="http://www.w3.org/2000/svg">
<rect y="0.5" width="80" height="80" rx="40" fill="#FEFEFE"/>
<path d="M50.3401 39.143L50.3326 39.1397L30.3133 30.8362C30.1449 30.7658 29.9617 30.7381 29.78 30.7558C29.5983 30.7735 29.4238 30.8359 29.2722 30.9375C29.112 31.0425 28.9804 31.1857 28.8892 31.3541C28.7981 31.5226 28.7502 31.7111 28.75 31.9027V37.2131C28.7501 37.475 28.8415 37.7286 29.0086 37.9303C29.1756 38.132 29.4077 38.2691 29.665 38.318L40.5836 40.3369C40.6265 40.345 40.6652 40.3679 40.6931 40.4015C40.7209 40.4351 40.7362 40.4774 40.7362 40.5211C40.7362 40.5648 40.7209 40.6071 40.6931 40.6407C40.6652 40.6743 40.6265 40.6972 40.5836 40.7053L29.6655 42.7242C29.4083 42.773 29.1761 42.9099 29.009 43.1114C28.8419 43.3129 28.7503 43.5663 28.75 43.8281V49.1395C28.7499 49.3224 28.7952 49.5025 28.8818 49.6636C28.9684 49.8247 29.0937 49.9618 29.2464 50.0625C29.4301 50.1845 29.6456 50.2497 29.8661 50.25C30.0194 50.2499 30.1711 50.2191 30.3123 50.1595L50.3312 41.9034L50.3401 41.8992C50.6096 41.7834 50.8392 41.5911 51.0006 41.3462C51.1619 41.1013 51.2479 40.8144 51.2479 40.5211C51.2479 40.2278 51.1619 39.9409 51.0006 39.696C50.8392 39.451 50.6096 39.2588 50.3401 39.143Z" fill="#579797"/>
</svg>
