<svg width="80" height="80" viewBox="0 0 80 80" fill="none" xmlns="http://www.w3.org/2000/svg">
<rect width="80" height="80" rx="40" fill="#67B3C0"/>
<path d="M50.3401 38.6431L50.3326 38.6398L30.3133 30.3364C30.1449 30.2659 29.9617 30.2382 29.78 30.2559C29.5983 30.2736 29.4238 30.336 29.2722 30.4376C29.112 30.5426 28.9804 30.6858 28.8892 30.8542C28.7981 31.0227 28.7502 31.2112 28.75 31.4028V36.7132C28.7501 36.9751 28.8415 37.2287 29.0086 37.4304C29.1756 37.6321 29.4077 37.7692 29.665 37.8181L40.5836 39.837C40.6265 39.8451 40.6652 39.868 40.6931 39.9016C40.7209 39.9352 40.7362 39.9775 40.7362 40.0212C40.7362 40.0649 40.7209 40.1072 40.6931 40.1408C40.6652 40.1744 40.6265 40.1973 40.5836 40.2054L29.6655 42.2243C29.4083 42.2731 29.1761 42.41 29.009 42.6115C28.8419 42.813 28.7503 43.0665 28.75 43.3282V48.6397C28.7499 48.8226 28.7952 49.0026 28.8818 49.1637C28.9684 49.3248 29.0937 49.4619 29.2464 49.5626C29.4301 49.6846 29.6456 49.7499 29.8661 49.7501C30.0194 49.75 30.1711 49.7192 30.3123 49.6597L50.3312 41.4036L50.3401 41.3993C50.6096 41.2835 50.8392 41.0913 51.0006 40.8463C51.1619 40.6014 51.2479 40.3145 51.2479 40.0212C51.2479 39.7279 51.1619 39.441 51.0006 39.1961C50.8392 38.9512 50.6096 38.7589 50.3401 38.6431Z" fill="#FEFEFE"/>
</svg>
