<svg width="178" height="168" viewBox="0 0 178 168" fill="none" xmlns="http://www.w3.org/2000/svg">
<path d="M4.45149 76.3074C4.35053 75.1446 4.49237 73.9736 4.86799 72.8686C5.24362 71.7637 5.84483 70.7488 6.63348 69.8885C7.42213 69.0282 8.381 68.3412 9.44924 67.8711C10.5175 67.4011 11.6718 67.1582 12.8389 67.1579H28.9189C31.1523 67.1579 33.2942 68.0451 34.8734 69.6244C36.4527 71.2036 37.3399 73.3455 37.3399 75.5789V155.579C37.3399 157.812 36.4527 159.954 34.8734 161.534C33.2942 163.113 31.1523 164 28.9189 164H19.7989C17.6912 164.001 15.66 163.211 14.1063 161.786C12.5527 160.362 11.5896 158.407 11.4073 156.307L4.45149 76.3074ZM62.6031 72.9474C62.6031 69.4274 64.7925 66.2779 67.9715 64.7789C74.9146 61.5031 86.742 54.9221 92.0768 46.0252C98.9525 34.5558 100.249 13.8358 100.46 9.0905C100.489 8.42524 100.473 7.75998 100.561 7.10313C101.702 -1.12002 117.571 8.48419 123.656 18.64C126.961 24.1473 127.382 31.3852 127.037 37.04C126.662 43.0863 124.889 48.9263 123.15 54.7284L119.445 67.0947H165.159C166.46 67.0946 167.743 67.396 168.908 67.9753C170.073 68.5545 171.088 69.3958 171.874 70.4332C172.659 71.4706 173.193 72.6758 173.434 73.9543C173.676 75.2329 173.617 76.5499 173.264 77.8021L150.654 157.869C150.154 159.635 149.092 161.19 147.628 162.296C146.164 163.403 144.379 164.001 142.544 164H71.0241C68.7907 164 66.6488 163.113 65.0695 161.534C63.4903 159.954 62.6031 157.812 62.6031 155.579V72.9474Z" stroke="#67B3C0" stroke-width="8" stroke-linecap="round" stroke-linejoin="round"/>
</svg>
