<svg width="81" height="80" viewBox="0 0 81 80" fill="none" xmlns="http://www.w3.org/2000/svg">
<rect x="0.5" width="80" height="80" rx="12" fill="#0C0C0C"/>
<g clip-path="url(#clip0_363_3857)">
<path d="M11.7708 39.6409C11.7694 44.6821 13.0866 49.6044 15.5912 53.943L11.5312 68.7667L26.7015 64.7891C30.8974 67.0733 35.5986 68.2702 40.3759 68.2705H40.3885C56.1594 68.2705 68.9973 55.4372 69.004 39.6635C69.0071 32.02 66.0331 24.8325 60.6299 19.4251C55.2275 14.0181 48.0426 11.0388 40.3873 11.0353C24.6145 11.0353 11.7775 23.8679 11.771 39.6409" fill="url(#paint0_linear_363_3857)"/>
<path d="M10.7488 39.6316C10.7472 44.8542 12.1116 49.9526 14.7056 54.4465L10.5 69.8016L26.2142 65.6814C30.544 68.0421 35.4188 69.2867 40.3793 69.2886H40.3921C56.7288 69.2886 70.0279 55.9937 70.0349 39.6553C70.0377 31.7372 66.9567 24.2914 61.3605 18.6902C55.7635 13.0898 48.3216 10.0033 40.3921 10C24.0526 10 10.7553 23.293 10.7488 39.6316ZM20.1072 53.6726L19.5205 52.7412C17.054 48.8193 15.7521 44.2872 15.754 39.6335C15.7591 26.0533 26.8112 15.0047 40.4014 15.0047C46.9828 15.0074 53.1679 17.573 57.82 22.2279C62.4719 26.8833 65.0316 33.0716 65.03 39.6535C65.024 53.2337 53.9716 64.2837 40.3921 64.2837H40.3823C35.9607 64.2814 31.6242 63.094 27.8423 60.85L26.9423 60.3163L17.6172 62.7612L20.1072 53.6726Z" fill="url(#paint1_linear_363_3857)"/>
<path d="M32.9836 27.2437C32.4287 26.0105 31.8447 25.9856 31.3171 25.9639C30.885 25.9453 30.391 25.9467 29.8975 25.9467C29.4036 25.9467 28.601 26.1326 27.9226 26.8733C27.2436 27.6146 25.3301 29.4063 25.3301 33.0502C25.3301 36.6944 27.9843 40.216 28.3543 40.7107C28.7247 41.2044 33.4782 48.9216 41.0066 51.8905C47.2633 54.3577 48.5366 53.867 49.8945 53.7432C51.2526 53.62 54.2768 51.9521 54.8938 50.2226C55.5112 48.4933 55.5112 47.0109 55.3261 46.7012C55.141 46.3926 54.6471 46.2072 53.9064 45.837C53.1654 45.4665 49.524 43.6746 48.8452 43.4274C48.1661 43.1805 47.6724 43.0572 47.1784 43.7988C46.6845 44.5393 45.2661 46.2072 44.8338 46.7012C44.4019 47.1963 43.9696 47.2579 43.2291 46.8874C42.488 46.5158 40.1026 45.7346 37.2726 43.2116C35.0708 41.2484 33.5843 38.8239 33.1522 38.0823C32.7201 37.3419 33.1059 36.9405 33.4773 36.5714C33.8101 36.2395 34.2182 35.7065 34.5889 35.2742C34.9582 34.8416 35.0815 34.533 35.3285 34.0391C35.5757 33.5446 35.4519 33.1121 35.2671 32.7416C35.0815 32.3712 33.6422 28.7081 32.9836 27.2437Z" fill="#0C0C0C"/>
</g>
<defs>
<linearGradient id="paint0_linear_363_3857" x1="2885.17" y1="5784.18" x2="2885.17" y2="11.0353" gradientUnits="userSpaceOnUse">
<stop stop-color="#1FAF38"/>
<stop offset="1" stop-color="#60D669"/>
</linearGradient>
<linearGradient id="paint1_linear_363_3857" x1="2987.24" y1="5990.16" x2="2987.24" y2="10" gradientUnits="userSpaceOnUse">
<stop stop-color="#F9F9F9"/>
<stop offset="1" stop-color="white"/>
</linearGradient>
<clipPath id="clip0_363_3857">
<rect width="59.5349" height="60" fill="white" transform="translate(10.5 10)"/>
</clipPath>
</defs>
</svg>
