<svg width="80" height="80" viewBox="0 0 80 80" fill="none" xmlns="http://www.w3.org/2000/svg">
  <!-- Base Circle -->
  <circle cx="40" cy="40" r="40" fill="#25D366"/>
  
  <!-- Megaphone/Channel Symbol -->
  <path fill-rule="evenodd" clip-rule="evenodd" d="M47.5 26.25C48.4 26.25 49.2 26.85 49.45 27.7L53.75 42.7C54.1 43.9 53.35 45.15 52.15 45.5L48.75 46.5V51.25C48.75 52.75 47.5 54 46 54H34C32.5 54 31.25 52.75 31.25 51.25V46.5L27.85 45.5C26.65 45.15 25.9 43.9 26.25 42.7L30.55 27.7C30.8 26.85 31.6 26.25 32.5 26.25H47.5ZM46.25 46.75V51.5H33.75V46.75L46.25 43.25V46.75ZM47.5 28.75H32.5L28.9 41.25L46.6 36.5C47.8 36.15 48.55 34.9 48.2 33.7C47.95 32.85 47.15 32.25 46.25 32.25H35C34.3 32.25 33.75 31.7 33.75 31C33.75 30.3 34.3 29.75 35 29.75H46.25C48.35 29.75 50.15 31.15 50.65 33.15C51.35 35.95 49.55 38.75 46.75 39.45L31.1 43.75L47.5 28.75Z" fill="white"/>
</svg>
