<svg width="40" height="40" viewBox="0 0 40 40" fill="none" xmlns="http://www.w3.org/2000/svg">
<rect x="0.5" y="0.5" width="39" height="39" rx="19.5" stroke="#413E3E"/>
<g clip-path="url(#clip0_2039_2207)">
<path fill-rule="evenodd" clip-rule="evenodd" d="M20 12C20.855 12 21.732 12.022 22.582 12.058L23.586 12.106L24.547 12.163L25.447 12.224L26.269 12.288C27.1612 12.3559 28.0008 12.7364 28.64 13.3626C29.2791 13.9888 29.6768 14.8204 29.763 15.711L29.803 16.136L29.878 17.046C29.948 17.989 30 19.017 30 20C30 20.983 29.948 22.011 29.878 22.954L29.803 23.864L29.763 24.289C29.6768 25.1798 29.2789 26.0115 28.6396 26.6377C28.0002 27.2639 27.1604 27.6443 26.268 27.712L25.448 27.775L24.548 27.837L23.586 27.894L22.582 27.942C21.7218 27.9793 20.861 27.9986 20 28C19.139 27.9986 18.2782 27.9793 17.418 27.942L16.414 27.894L15.453 27.837L14.553 27.775L13.731 27.712C12.8388 27.6441 11.9992 27.2636 11.36 26.6374C10.7209 26.0112 10.3232 25.1796 10.237 24.289L10.197 23.864L10.122 22.954C10.0458 21.9711 10.0051 20.9858 10 20C10 19.017 10.052 17.989 10.122 17.046L10.197 16.136L10.237 15.711C10.3232 14.8206 10.7207 13.9891 11.3597 13.3629C11.9986 12.7368 12.838 12.3561 13.73 12.288L14.551 12.224L15.451 12.163L16.413 12.106L17.417 12.058C18.2775 12.0207 19.1387 12.0014 20 12ZM18 17.575V22.425C18 22.887 18.5 23.175 18.9 22.945L23.1 20.52C23.1914 20.4674 23.2673 20.3916 23.3201 20.3003C23.3729 20.209 23.4007 20.1055 23.4007 20C23.4007 19.8945 23.3729 19.791 23.3201 19.6997C23.2673 19.6084 23.1914 19.5326 23.1 19.48L18.9 17.056C18.8088 17.0033 18.7053 16.9756 18.5999 16.9756C18.4945 16.9756 18.3911 17.0034 18.2998 17.0561C18.2086 17.1088 18.1329 17.1846 18.0802 17.2759C18.0276 17.3671 17.9999 17.4706 18 17.576V17.575Z" fill="black"/>
</g>
<defs>
<clipPath id="clip0_2039_2207">
<rect width="24" height="24" fill="white" transform="translate(8 8)"/>
</clipPath>
</defs>
</svg>
